<?xml version="1.0" standalone="no"?>
<!DOCTYPE svg PUBLIC "-//W3C//DTD SVG 20010904//EN"
 "http://www.w3.org/TR/2001/REC-SVG-20010904/DTD/svg10.dtd">
<svg version="1.0" xmlns="http://www.w3.org/2000/svg"
 width="512.000000pt" height="512.000000pt" viewBox="0 0 512.000000 512.000000"
 preserveAspectRatio="xMidYMid meet">

<g transform="translate(0.000000,512.000000) scale(0.100000,-0.100000)"
fill="#000000" stroke="none">
<path d="M147 3403 c-11 -19 -60 -192 -82 -290 -41 -183 -57 -341 -57 -553 0
-273 28 -472 104 -732 l31 -108 1626 -2 1626 -3 -1622 -2 c-893 -2 -1623 -4
-1623 -6 0 -11 76 -189 117 -272 295 -607 829 -1076 1470 -1294 435 -148 933
-175 1383 -75 300 67 584 188 845 360 337 222 625 530 822 879 217 383 326
803 326 1255 0 276 -35 514 -111 755 l-28 90 -2411 3 c-1327 1 -2414 -1 -2416
-5z"/>
</g>
</svg>
